<?xml version="1.0" standalone="no"?>
<!DOCTYPE svg PUBLIC "-//W3C//DTD SVG 20010904//EN"
 "http://www.w3.org/TR/2001/REC-SVG-20010904/DTD/svg10.dtd">
<svg version="1.0" xmlns="http://www.w3.org/2000/svg"
 width="1024.000000pt" height="1024.000000pt" viewBox="0 0 1024.000000 1024.000000"
 preserveAspectRatio="xMidYMid meet">

<g transform="translate(0.000000,1024.000000) scale(0.100000,-0.100000)"
fill="#000000" stroke="none">
<path d="M0 5120 l0 -5120 5120 0 5120 0 0 5120 0 5120 -5120 0 -5120 0 0
-5120z m3580 3767 c412 -61 729 -184 1002 -389 350 -264 557 -658 609 -1157
16 -158 7 -463 -20 -611 -66 -376 -220 -690 -445 -915 -259 -257 -613 -426
-1028 -490 -172 -27 -344 -32 -1040 -34 l-658 -1 0 1811 0 1811 738 -5 c597
-4 757 -7 842 -20z m4630 -387 l0 -410 -865 0 -865 0 0 -305 0 -305 800 0 800
0 0 -380 0 -380 -800 0 -800 0 0 -310 0 -310 880 0 880 0 0 -405 0 -405 -1360
0 -1360 0 0 1810 0 1810 1345 0 1345 0 0 -410z m-3440 -3940 l0 -410 -912 0
-913 0 1 -303 2 -302 823 -2 824 -3 3 -380 2 -380 -827 0 -828 0 0 -310 0
-310 918 0 917 0 0 -400 0 -400 -1390 0 -1390 0 0 1805 0 1805 1385 0 1385 0
0 -410z m2225 391 c742 -108 1138 -429 1240 -1006 24 -134 22 -398 -4 -545
-72 -412 -313 -702 -720 -866 -245 -99 -362 -115 -906 -121 l-430 -5 3 -524 2
-524 -485 0 -485 0 0 1806 0 1805 853 -4 c577 -3 878 -8 932 -16z"/>
<path d="M2950 7091 l0 -991 208 0 c231 0 350 14 482 56 280 88 462 266 549
539 44 135 54 230 48 433 -4 147 -9 193 -30 272 -83 315 -275 523 -567 618
-140 46 -198 54 -447 59 l-243 5 0 -991z"/>
<path d="M6175 3665 l0 -497 325 4 c295 4 332 7 405 27 240 65 357 200 372
431 10 159 -38 300 -132 389 -62 59 -112 86 -213 113 -70 19 -110 22 -417 26
l-340 4 0 -497z"/>
</g>
</svg>
