<?xml version="1.0" standalone="no"?>
<!DOCTYPE svg PUBLIC "-//W3C//DTD SVG 20010904//EN"
 "http://www.w3.org/TR/2001/REC-SVG-20010904/DTD/svg10.dtd">
<svg version="1.0" xmlns="http://www.w3.org/2000/svg"
 width="1024.000000pt" height="1024.000000pt" viewBox="0 0 1024.000000 1024.000000"
 preserveAspectRatio="xMidYMid meet">

<g transform="translate(0.000000,1024.000000) scale(0.100000,-0.100000)"
fill="#000000" stroke="none">
<path d="M0 5120 l0 -5120 5120 0 5120 0 0 5120 0 5120 -5120 0 -5120 0 0
-5120z m2430 784 c324 -61 577 -297 662 -614 28 -105 28 -285 -1 -395 -59
-225 -207 -414 -411 -523 -158 -85 -270 -102 -668 -102 -269 0 -304 4 -324 34
-4 6 -8 362 -8 790 l0 780 22 23 21 23 313 0 c241 0 330 -4 394 -16z m2321 -9
c29 -19 27 -76 -5 -97 -6 -4 -235 -8 -508 -8 l-498 0 0 -685 0 -685 493 0
c375 0 498 -3 517 -13 31 -16 39 -61 14 -88 -16 -18 -38 -19 -556 -19 l-539 0
-24 25 -25 24 0 754 c0 704 1 756 18 776 17 21 25 21 352 24 450 3 747 0 761
-8z m661 -735 l3 -741 486 1 c482 0 532 -3 551 -33 13 -21 9 -46 -12 -67 -20
-20 -33 -20 -559 -20 l-538 0 -27 26 -26 27 0 747 c0 741 0 748 21 774 16 20
29 26 60 26 l39 0 2 -740z m1022 724 c21 -20 20 -53 -1 -76 -15 -17 -38 -18
-310 -18 -256 0 -297 2 -319 16 -24 16 -54 62 -54 84 0 7 108 10 334 10 291 0
337 -2 350 -16z m1411 1 c156 -41 281 -156 336 -311 29 -79 29 -214 1 -301
-55 -172 -201 -297 -377 -323 -38 -5 -216 -10 -395 -10 l-325 0 3 -299 c3
-299 3 -299 -19 -320 -30 -28 -54 -26 -84 4 l-25 24 0 749 c0 743 0 750 21
776 l20 26 393 0 c320 0 403 -3 451 -15z m716 -38 c69 -45 87 -129 45 -202
-77 -130 -269 -73 -269 80 0 114 130 185 224 122z m-3837 -700 c26 -19 24 -67
-4 -89 -21 -17 -53 -18 -476 -18 l-454 0 0 60 0 60 458 0 c365 0 462 -3 476
-13z m1688 -4 c22 -19 23 -52 4 -79 -14 -18 -31 -19 -478 -19 l-463 0 -3 58
-3 57 462 0 c416 0 464 -2 481 -17z m2099 -616 c41 -28 59 -60 59 -111 0 -31
-7 -45 -39 -77 -32 -33 -45 -39 -79 -39 -58 0 -89 15 -112 52 -39 65 -19 151
42 181 46 23 89 21 129 -6z"/>
<path d="M1802 5098 l3 -703 225 -3 c401 -5 531 25 705 165 166 134 257 325
258 538 1 122 -18 200 -75 315 -76 151 -243 296 -404 349 -102 34 -179 41
-452 41 l-262 0 2 -702z"/>
<path d="M7082 5423 l3 -358 360 0 c352 0 361 1 417 23 79 32 149 101 188 185
28 59 32 78 32 152 0 68 -5 94 -25 139 -34 73 -94 136 -169 177 l-63 34 -373
3 -372 3 2 -358z"/>
<path d="M8430 5843 c-54 -28 -83 -78 -76 -131 18 -132 167 -169 235 -59 68
111 -46 247 -159 190z m104 -59 c20 -20 20 -33 0 -55 -15 -17 -15 -20 0 -44 9
-14 12 -25 6 -25 -5 0 -17 11 -26 25 -10 15 -26 25 -40 25 -20 0 -24 -5 -24
-30 0 -16 -4 -30 -10 -30 -6 0 -10 32 -10 75 l0 75 44 0 c27 0 51 -6 60 -16z"/>
<path d="M8450 5754 c0 -34 2 -35 31 -32 34 3 60 31 44 46 -6 5 -25 12 -42 15
-32 6 -33 6 -33 -29z"/>
</g>
</svg>
